<?xml version="1.0"?>
<svg xmlns="http://www.w3.org/2000/svg" xmlns:xlink="http://www.w3.org/1999/xlink" version="1.1" id="Capa_1" x="0px" y="0px" viewBox="0 0 496.135 496.135" style="enable-background:new 0 0 496.135 496.135;" xml:space="preserve" width="512px" height="512px" class=""><g><g>
	<g>
		<path d="M248.135,0.068c-136.744,0-248,111.256-248,248c0,38.84,9.272,77.36,26.68,111.792    c-27.424,53.128-37.024,99.488-13.496,123.024c8.76,8.76,21.216,13.136,36.952,13.136c17.192,0,38.304-5.216,62.808-15.656    l-6.264-14.72c-39.84,16.968-69.016,19.08-82.176,5.928C-4.409,442.524,41.663,341.804,131.815,237.3l-12.12-10.456    c-32.28,37.416-61.792,77.792-83.456,115.712c-13.168-29.552-20.104-61.912-20.104-94.488c0-127.928,104.072-232,232-232    s232,104.072,232,232c0,79.632-40.344,150.008-101.648,191.808c-9.168-19.12-28.528-31.808-50.352-31.808    c-30.88,0-56,25.128-56,56c0,4.952,0.72,9.784,2,14.504c-8.536,0.96-17.208,1.496-26,1.496    c-76.912,0-148.68-38.024-191.992-101.72l-13.232,9c46.288,68.08,123.008,108.72,205.224,108.72c136.744,0,248-111.248,248-248    C496.135,111.324,384.879,0.068,248.135,0.068z M290.095,476.196c-1.264-3.928-1.96-7.984-1.96-12.128c0-22.056,17.944-40,40-40    c16.208,0,30.536,9.792,36.712,24.376C342.095,461.748,316.895,471.276,290.095,476.196z" data-original="#000000" class="active-path" data-old_color="#FCFBFB" fill="#FCFCFC"/>
	</g>
</g><g>
	<g>
		<path d="M284.823,40.068l-16,16h-24l-64,64h-80l-32,32l29.656,29.656l11.312-11.312l-18.344-18.344l16-16h57.376l-56,56    l59.312,59.312l56-56v57.376l-16,16l-18.344-18.344l-11.312,11.312l29.656,29.656l32-32v-80l64-64v-24l16-16V40.068H284.823z     M168.135,228.756l-36.688-36.688l84.688-84.688l36.688,36.688L168.135,228.756z M288.135,108.756l-24,24l-36.688-36.688l24-24    h17.376l19.312,19.312V108.756z M304.135,68.756l-8,8l-12.688-12.688l8-8h12.688V68.756z" data-original="#000000" class="active-path" data-old_color="#FCFBFB" fill="#FCFCFC"/>
	</g>
</g><g>
	<g>
		<path d="M408.135,168.068c-26.472,0-48,21.528-48,48s21.528,48,48,48s48-21.528,48-48S434.607,168.068,408.135,168.068z     M408.135,248.068c-17.648,0-32-14.352-32-32s14.352-32,32-32s32,14.352,32,32S425.783,248.068,408.135,248.068z" data-original="#000000" class="active-path" data-old_color="#FCFBFB" fill="#FCFCFC"/>
	</g>
</g><g>
	<g>
		<path d="M136.135,320.068c-13.232,0-24,10.768-24,24s10.768,24,24,24s24-10.768,24-24S149.367,320.068,136.135,320.068z     M136.135,352.068c-4.408,0-8-3.584-8-8c0-4.416,3.592-8,8-8s8,3.584,8,8C144.135,348.484,140.543,352.068,136.135,352.068z" data-original="#000000" class="active-path" data-old_color="#FCFBFB" fill="#FCFCFC"/>
	</g>
</g><g>
	<g>
		<path d="M288.135,232.068c-13.232,0-24,10.768-24,24c0,13.232,10.768,24,24,24s24-10.768,24-24    C312.135,242.836,301.367,232.068,288.135,232.068z M288.135,264.068c-4.408,0-8-3.584-8-8c0-4.408,3.592-8,8-8    c4.408,0,8,3.592,8,8C296.135,260.484,292.543,264.068,288.135,264.068z" data-original="#000000" class="active-path" data-old_color="#FCFBFB" fill="#FCFCFC"/>
	</g>
</g><g>
	<g>
		<rect x="200.13" y="352.07" width="16" height="16" data-original="#000000" class="active-path" data-old_color="#FCFBFB" fill="#FCFCFC"/>
	</g>
</g><g>
	<g>
		<rect x="360.13" y="320.07" width="16" height="16" data-original="#000000" class="active-path" data-old_color="#FCFBFB" fill="#FCFCFC"/>
	</g>
</g><g>
	<g>
		<rect x="232.13" y="440.07" width="16" height="16" data-original="#000000" class="active-path" data-old_color="#FCFBFB" fill="#FCFCFC"/>
	</g>
</g><g>
	<g>
		<rect x="344.13" y="112.07" width="16" height="16" data-original="#000000" class="active-path" data-old_color="#FCFBFB" fill="#FCFCFC"/>
	</g>
</g><g>
	<g>
		<rect x="288.13" y="312.07" width="16" height="16" data-original="#000000" class="active-path" data-old_color="#FCFBFB" fill="#FCFCFC"/>
	</g>
</g><g>
	<g>
		<rect x="144.13" y="56.07" width="16" height="16" data-original="#000000" class="active-path" data-old_color="#FCFBFB" fill="#FCFCFC"/>
	</g>
</g></g> </svg>
